<svg width="200" height="200" viewBox="0 0 1024 1024" xmlns="http://www.w3.org/2000/svg" xmlns:xlink="http://www.w3.org/1999/xlink" overflow="hidden"><defs></defs><path d="M887.3 981.3 136.7 981.3C61.3 981.3 0 920 0 844.6L0 179.4C0 104 61.3 42.7 136.7 42.7L321.3 42.7C346.8 42.7 370.7 53.9 387 73.5L468 170.7 895.1 170.7C966.2 170.7 1024 228.5 1024 299.6L1024 844.7C1024 920 962.7 981.3 887.3 981.3ZM136.7 128C108.4 128 85.3 151 85.3 179.4L85.3 844.6C85.3 872.9 108.3 896 136.7 896L887.3 896C915.6 896 938.7 873 938.7 844.6L938.7 299.5C938.7 275.5 919.2 256 895.1 256L468.1 256C442.6 256 418.7 244.8 402.4 225.2L321.4 128 136.7 128Z" stroke="none" stroke-width="1" stroke-dasharray="" stroke-dashoffset="1" fill="#000000" fill-opacity="1"/><path d="M970.7 458.7 448 458.7C424.4 458.7 405.3 439.6 405.3 416 405.3 392.4 424.4 373.3 448 373.3L970.7 373.3C994.3 373.3 1013.4 392.4 1013.4 416 1013.4 439.6 994.2 458.7 970.7 458.7Z" stroke="none" stroke-width="1" stroke-dasharray="" stroke-dashoffset="1" fill="#000000" fill-opacity="1"/></svg>