<?xml version="1.0" encoding="UTF-8" standalone="no"?>
<svg
   xmlns:dc="http://purl.org/dc/elements/1.1/"
   xmlns:cc="http://creativecommons.org/ns#"
   xmlns:rdf="http://www.w3.org/1999/02/22-rdf-syntax-ns#"
   xmlns:svg="http://www.w3.org/2000/svg"
   xmlns="http://www.w3.org/2000/svg"
   xmlns:sodipodi="http://sodipodi.sourceforge.net/DTD/sodipodi-0.dtd"
   xmlns:inkscape="http://www.inkscape.org/namespaces/inkscape"
   t="1598275760711"
   class="icon"
   viewBox="0 0 1024 1024"
   version="1.1"
   p-id="15704"
   width="200"
   height="200"
   id="svg8"
   sodipodi:docname="file.svg"
   inkscape:version="0.92.4 (5da689c313, 2019-01-14)">
  <metadata
     id="metadata12">
    <rdf:RDF>
      <cc:Work
         rdf:about="">
        <dc:format>image/svg+xml</dc:format>
        <dc:type
           rdf:resource="http://purl.org/dc/dcmitype/StillImage" />
      </cc:Work>
    </rdf:RDF>
  </metadata>
  <sodipodi:namedview
     pagecolor="#ffffff"
     bordercolor="#666666"
     borderopacity="1"
     objecttolerance="10"
     gridtolerance="10"
     guidetolerance="10"
     inkscape:pageopacity="0"
     inkscape:pageshadow="2"
     inkscape:window-width="1920"
     inkscape:window-height="1040"
     id="namedview10"
     showgrid="false"
     inkscape:zoom="1.18"
     inkscape:cx="100"
     inkscape:cy="100"
     inkscape:window-x="0"
     inkscape:window-y="0"
     inkscape:window-maximized="1"
     inkscape:current-layer="svg8" />
  <defs
     id="defs4">
    <style
       type="text/css"
       id="style2" />
  </defs>
  <path
     d="M 705.43758,269.80635 598.59062,156.03108 V 269.80635 Z M 547.35064,324.37219 V 133.38779 H 342.46967 q -10.77376,0 -18.20047,7.91766 a 23.702268,25.972494 0 0 0 -7.40516,19.3692 V 651.7909 a 23.587348,25.846567 0 0 0 7.40516,19.36918 q 7.3908,7.90981 18.20047,7.90981 h 358.55066 q 10.83122,0 18.22203,-7.90981 a 23.702268,25.972494 0 0 0 7.37642,-19.36918 V 324.38006 Z M 342.48403,78.814072 H 598.59062 L 777.8516,269.80635 v 381.97667 c 0,22.54885 -7.50572,41.92591 -22.5028,57.83996 -14.99706,15.91406 -33.10416,24.00488 -54.33564,24.00488 H 342.46967 q -31.78258,0 -54.3141,-24.00488 C 273.14412,693.70893 265.64559,674.33187 265.64559,651.78302 V 160.66678 q 0,-33.84295 22.50998,-57.83996 22.50997,-23.997008 54.3141,-24.012748 z m 0,0"
     p-id="15705"
     id="path6"
     inkscape:connector-curvature="0"
     style="fill:#000000;stroke-width:0.75186145" />
  <text
     xml:space="preserve"
     style="font-style:normal;font-weight:normal;font-size:204.80000305px;line-height:1.25;font-family:sans-serif;letter-spacing:0px;word-spacing:0px;fill:#000000;fill-opacity:1;stroke:none;stroke-width:5.11999989"
     x="34.711861"
     y="924.20337"
     id="text16"><tspan
       sodipodi:role="line"
       id="tspan14"
       x="518"
       y="924.20337"
       style="font-style:normal;font-variant:normal;font-weight:normal;font-stretch:normal;font-size:163.83999634px;font-family:sans-serif;-inkscape-font-specification:'sans-serif, Normal';font-variant-ligatures:normal;font-variant-caps:normal;font-variant-numeric:normal;font-feature-settings:normal;text-align:start;writing-mode:lr-tb;dominant-baseline:middle;text-anchor:middle;stroke-width:5.11999989">OOOOOOOO</tspan></text>
</svg>
