<?xml version="1.0" standalone="no"?><!DOCTYPE svg PUBLIC "-//W3C//DTD SVG 1.1//EN" "http://www.w3.org/Graphics/SVG/1.1/DTD/svg11.dtd"><svg t="1598967682109" class="icon" viewBox="0 0 1024 1024" version="1.1" xmlns="http://www.w3.org/2000/svg" p-id="1153" xmlns:xlink="http://www.w3.org/1999/xlink" width="200" height="200"><defs><style type="text/css"></style></defs><path d="M568.553 954.182a86.342 86.342 0 0 1-41.426-10.473l-114.269-62.836a86.575 86.575 0 0 1-44.916-76.102V442.18a16.99 16.99 0 0 0-6.982-13.73L97.047 218.298l-3.956-3.49a85.876 85.876 0 0 1 62.836-144.99h711.215a86.575 86.575 0 0 1 63.767 144.99l-3.49 3.49-266.24 213.411a17.455 17.455 0 0 0-6.052 13.731v422.4a86.342 86.342 0 0 1-86.574 86.342z m-426.59-787.55l262.284 209.455a85.178 85.178 0 0 1 32.815 66.095V804.77a17.92 17.92 0 0 0 8.61 15.593l114.27 62.138a17.687 17.687 0 0 0 17.687 0 17.222 17.222 0 0 0 8.378-15.36V445.44a85.876 85.876 0 0 1 31.884-67.258l263.214-211.55a17.687 17.687 0 0 0 1.63-18.152 17.455 17.455 0 0 0-15.593-8.844H155.927a17.222 17.222 0 0 0-13.963 27.695zM920.67 512H731.695a34.444 34.444 0 0 1 0-69.818h188.974a34.444 34.444 0 0 1 0 69.818z m0 128.93H731.695a34.444 34.444 0 0 1 0-69.817h188.974a34.444 34.444 0 0 1 0 69.818z m0 128H731.695a34.444 34.444 0 0 1 0-69.817h188.974a34.444 34.444 0 0 1 0 69.818z" p-id="1154" fill="#000000"></path></svg>