<svg width="200" height="200" viewBox="0 0 1024 1024" xmlns="http://www.w3.org/2000/svg" xmlns:xlink="http://www.w3.org/1999/xlink" overflow="hidden"><defs></defs><path d="M856.064 926.208 694.272 760.32 692.736 758.784C628.736 812.544 546.816 844.8 457.728 844.8 252.928 844.8 87.04 673.792 87.04 463.36 87.04 252.928 252.928 81.92 458.24 81.92 663.04 81.92 829.44 252.928 829.44 463.36 829.44 542.72 805.376 616.96 764.928 677.888L770.048 681.984 931.84 847.872C952.32 869.376 952.32 904.192 931.84 925.696 910.848 947.2 877.056 947.2 856.064 926.208ZM723.456 463.36C723.456 312.32 604.672 189.952 458.24 189.952 311.296 189.952 193.024 312.32 193.024 463.36 193.024 613.888 311.808 736.256 458.24 736.256 604.672 736.256 723.456 613.888 723.456 463.36Z"/></svg>