<?xml version="1.0" standalone="no"?><!DOCTYPE svg PUBLIC "-//W3C//DTD SVG 1.1//EN" "http://www.w3.org/Graphics/SVG/1.1/DTD/svg11.dtd"><svg t="1598186541314" class="icon" viewBox="0 0 1247 1024" version="1.1" xmlns="http://www.w3.org/2000/svg" p-id="2855" xmlns:xlink="http://www.w3.org/1999/xlink" width="243.5546875" height="200"><defs><style type="text/css"></style></defs><path d="M1080.321665 861.787234v55.606405h-134.574079v-55.606405zM1140.370001 757.703451v55.606405h-194.677254v-55.606405zM1146.1829 657.129343v55.606405h-200.435314V657.129343z" p-id="2856" fill="#000000"></path><path d="M1188.353832 563.190713h-287.57395a59.06124 59.06124 0 0 0-58.841886 58.841886v331.773912a59.06124 59.06124 0 0 0 58.841886 58.841886h287.57395a59.06124 59.06124 0 0 0 58.841885-58.841886v-331.773912a59.06124 59.06124 0 0 0-58.841885-58.841886z m10.967732 361.167436a39.37416 39.37416 0 0 1-39.264483 39.264483h-230.322385a39.37416 39.37416 0 0 1-39.264483-39.264483v-272.877188a39.37416 39.37416 0 0 1 39.264483-39.264483h230.322385a39.37416 39.37416 0 0 1 39.264483 39.264483z" p-id="2857" fill="#000000"></path><path d="M747.999366 888.548502a444.467365 444.467365 0 1 1 208.38692-376.631939v2.632256l67.451556-1.206451v-1.480644A511.864082 511.864082 0 1 0 795.763842 937.903299z" p-id="2858" fill="#000000"></path><path d="M723.870354 244.687757v535.060837h-63.393494v-38.880612H360.070663v41.458029h-60.32253v-537.418899zM360.070663 304.626416v155.577288h300.351358V304.626416z m300.351358 376.248068V518.881073H360.070663v161.993411z" p-id="2859" fill="#000000"></path></svg>