<?xml version="1.0" standalone="no"?><!DOCTYPE svg PUBLIC "-//W3C//DTD SVG 1.1//EN" "http://www.w3.org/Graphics/SVG/1.1/DTD/svg11.dtd"><svg t="1598186608216" class="icon" viewBox="0 0 1240 1024" version="1.1" xmlns="http://www.w3.org/2000/svg" p-id="3629" xmlns:xlink="http://www.w3.org/1999/xlink" width="242.1875" height="200"><defs><style type="text/css"></style></defs><path d="M1073.247478 861.787234v55.606405h-134.57408v-55.606405zM1133.350652 757.703451v55.606405h-194.677254v-55.606405zM1139.108712 657.184182v55.606404h-200.435314v-55.606404z" p-id="3630" fill="#000000"></path><path d="M1181.279644 563.190713H893.87021a59.06124 59.06124 0 0 0-58.841885 58.841886v331.773912A59.06124 59.06124 0 0 0 893.87021 1012.648397h287.57395a59.06124 59.06124 0 0 0 58.841886-58.841886v-331.773912a59.06124 59.06124 0 0 0-59.006402-58.841886z m10.967733 361.167436a39.37416 39.37416 0 0 1-39.264483 39.264483h-230.322386a39.37416 39.37416 0 0 1-39.264482-39.264483v-272.877188a39.37416 39.37416 0 0 1 39.264482-39.264483h230.322386a39.37416 39.37416 0 0 1 39.264483 39.264483z" p-id="3631" fill="#000000"></path><path d="M747.999366 888.548502a444.467365 444.467365 0 1 1 208.38692-376.631939v2.632256l67.451556-1.206451v-1.480644A511.864082 511.864082 0 1 0 795.763842 937.903299z" p-id="3632" fill="#000000"></path><path d="M736.428408 718.548646c0 38.387064-10.199991 56.758016-35.69997 66.299944-26.761268 10.967733-70.13865 12.119345-136.493432 12.119344a248.144951 248.144951 0 0 0-25.499979-62.516076c49.738668 2.577417 100.738624 1.919353 116.09345 1.26129 14.038698 0 19.138693-5.099996 19.138694-18.48063v-111.377325H384.419029c-16.451599 71.290262-48.477378 142.196654-109.074101 193.854674a224.838519 224.838519 0 0 0-45.022543-43.322543c99.25798-85.438637 108.799908-210.470789 108.799908-310.606189V245.565176h397.306115z m-62.516076-169.999856V454.116612h-274.193316a831.573489 831.573489 0 0 1-5.483866 94.377339z m-274.193316-245.512695v94.322501h274.193316V302.926417z" p-id="3633" fill="#000000"></path></svg>