<?xml version="1.0" standalone="no"?><!DOCTYPE svg PUBLIC "-//W3C//DTD SVG 1.1//EN" "http://www.w3.org/Graphics/SVG/1.1/DTD/svg11.dtd"><svg t="1598186628747" class="icon" viewBox="0 0 1249 1024" version="1.1" xmlns="http://www.w3.org/2000/svg" p-id="4696" xmlns:xlink="http://www.w3.org/1999/xlink" width="243.9453125" height="200"><defs><style type="text/css"></style></defs><path d="M1082.350696 861.787234v55.606405h-134.57408v-55.606405zM1142.453871 757.75829v55.606405h-194.677255v-55.606405zM1148.21193 657.184182v55.606404h-200.435314v-55.606404z" p-id="4697" fill="#000000"></path><path d="M1190.382862 563.190713h-287.57395a59.06124 59.06124 0 0 0-58.841885 58.841886v331.773912a59.06124 59.06124 0 0 0 58.841885 58.841886h287.57395a59.06124 59.06124 0 0 0 58.841886-58.841886v-331.773912a59.06124 59.06124 0 0 0-58.841886-58.841886z m10.967733 361.167436a39.37416 39.37416 0 0 1-39.264483 39.264483h-230.322385a39.37416 39.37416 0 0 1-39.264483-39.264483v-272.877188a39.37416 39.37416 0 0 1 39.264483-39.264483h230.322385a39.37416 39.37416 0 0 1 39.264483 39.264483z" p-id="4698" fill="#000000"></path><path d="M747.999366 888.548502a444.467365 444.467365 0 1 1 208.38692-376.631939v2.632256l67.451556-1.206451v-1.480644A511.864082 511.864082 0 1 0 795.763842 937.903299z" p-id="4699" fill="#000000"></path><path d="M774.376763 719.151871c0 33.780617-8.280638 50.396731-29.996749 59.335434s-56.099952 10.199991-112.254743 10.199991a198.95467 198.95467 0 0 0-18.48063-54.838663c36.358034 1.261289 75.238646 0.658064 86.096702 0.658064s15.299987-4.441932 15.299987-15.299987V289.929654H359.851308v155.632126c0 103.316041-10.967733 251.270755-80.338642 347.567448a232.954641 232.954641 0 0 0-48.477378-38.387064c63.777365-88.61928 70.13865-214.912721 70.13865-309.290061V234.487766h473.202825zM503.36409 448.742423v-52.91931H398.128695v-46.558025h105.235395v-49.354797H559.354365v49.354797h110.993454v46.558025H559.354365v52.91931h124.977313v47.819314H383.870642V448.742423z m-38.387065 262.12881v35.69997H411.289974V542.516537h244.251406v168.354696z m0-122.454735v75.89671h135.835369v-75.89671z" p-id="4700" fill="#000000"></path></svg>