<svg width="200" height="200" viewBox="0 0 1024 1024" xmlns="http://www.w3.org/2000/svg" xmlns:xlink="http://www.w3.org/1999/xlink" overflow="hidden"><defs></defs><path d="M981.885 863.676 205.427 863.676C182.143 863.676 163.305 844.841 163.305 821.559L163.305 45.103C163.305 21.821 182.143 2.982 205.427 2.982 228.708 2.982 247.546 21.822 247.546 45.103L247.546 779.434 981.883 779.434C1005.16 779.434 1024 798.274 1024 821.557 1024 844.841 1005.16 863.677 981.885 863.677Z" stroke="none" stroke-width="1" stroke-dasharray="" stroke-dashoffset="1" fill="#0D0D0D" fill-opacity="1"/><path d="M818.575 1021.02C795.292 1021.02 776.452 1002.18 776.452 978.898L776.452 835.667C776.452 812.383 795.292 793.546 818.575 793.546 841.858 793.546 860.699 812.383 860.699 835.666L860.699 978.9C860.701 1002.18 841.859 1021.02 818.575 1021.02ZM818.575 730.323C795.292 730.323 776.452 711.483 776.452 688.2L776.452 244.607 342.322 244.607C319.037 244.607 300.198 225.767 300.198 202.486 300.198 179.202 319.038 160.365 342.321 160.365L818.575 160.365C841.859 160.365 860.699 179.202 860.699 202.485L860.699 688.2C860.701 711.481 841.859 730.323 818.575 730.323ZM184.363 244.607 42.121 244.607C18.84 244.607 0 225.767 0 202.486 0 179.2 18.84 160.362 42.121 160.362L184.363 160.362C207.645 160.362 226.486 179.2 226.486 202.484 226.486 225.767 207.645 244.607 184.363 244.607Z" stroke="none" stroke-width="1" stroke-dasharray="" stroke-dashoffset="1" fill="#0D0D0D" fill-opacity="1"/></svg>