<svg width="200" height="200" viewBox="0 0 1024 1024" xmlns="http://www.w3.org/2000/svg" xmlns:xlink="http://www.w3.org/1999/xlink" overflow="hidden"><defs></defs><path d="M512 365.696C431.199 365.696 365.696 431.199 365.696 512 365.696 592.802 431.199 658.304 512 658.304 592.801 658.304 658.304 592.802 658.304 512 658.304 431.199 592.801 365.696 512 365.696M512 731.435C390.868 731.294 292.706 633.132 292.565 512 292.707 390.868 390.868 292.707 512 292.566 633.132 292.707 731.294 390.868 731.435 512 731.294 633.132 633.132 731.294 512 731.435"/><path d="M333.355 815.445C339.328 815.445 345.131 816.853 350.421 819.627 369.067 829.44 388.608 837.547 408.747 843.819 420.437 847.445 429.483 856.619 432.981 868.352 444.117 905.856 454.699 933.888 461.611 950.827L562.389 950.827C569.301 933.845 579.883 905.813 591.019 868.309 594.503 856.613 603.594 847.426 615.253 843.819 635.408 837.538 654.945 829.426 673.621 819.584 684.427 813.893 697.361 813.973 708.096 819.797 742.485 838.443 769.792 850.816 786.688 857.899L857.941 786.645C846.543 759.823 833.827 733.579 819.84 708.011 814.031 697.287 813.951 684.374 819.627 673.579 829.44 654.891 837.547 635.349 843.861 615.211 847.469 603.552 856.655 594.461 868.352 590.976 896.297 582.795 923.822 573.24 950.826 562.347L950.826 461.568C923.821 450.677 896.297 441.123 868.352 432.939 856.639 429.466 847.434 420.374 843.819 408.704 837.549 388.552 829.451 369.015 819.627 350.336 813.938 339.549 814.002 326.635 819.797 315.904 838.485 281.472 850.816 254.166 857.898 237.27L786.688 166.016C759.863 177.427 733.62 190.157 708.053 204.16 697.311 209.971 684.378 210.035 673.579 204.331 654.916 194.504 635.393 186.406 615.253 180.139 603.598 176.525 594.51 167.341 591.019 155.648 582.839 127.702 573.284 100.177 562.389 73.1737L461.611 73.1737C454.784 90.0697 444.16 117.974 433.024 155.222 429.651 167.114 420.505 176.501 408.704 180.182 388.565 186.454 369.024 194.56 350.336 204.374 339.53 210.064 326.596 209.984 315.861 204.16 290.306 190.19 264.076 177.488 237.269 166.102L166.016 237.312C173.141 254.208 185.472 281.515 204.16 315.947 209.969 326.671 210.049 339.584 204.373 350.379 194.56 369.067 186.453 388.608 180.139 408.747 176.531 420.406 167.345 429.497 155.648 432.982 118.144 444.075 90.1122 454.699 73.1735 461.611L73.1735 562.39C90.0268 569.216 117.717 579.755 154.88 590.806 167.258 594.195 176.966 603.806 180.48 616.15 186.624 635.734 194.475 654.72 203.989 672.896 210.237 684.15 210.107 697.859 203.648 708.992 185.301 742.955 173.099 769.92 166.101 786.688L237.355 857.941C264.164 846.561 290.394 833.859 315.947 819.883 321.291 816.981 327.274 815.456 333.355 815.445M562.347 1024 461.653 1024C431.921 1024.06 405.128 1006.07 393.941 978.517 387.541 962.944 378.368 938.837 368.427 907.435 356.729 903.167 345.227 898.383 333.952 893.099 304.725 908.288 281.131 918.869 265.643 925.355 238.267 936.898 206.625 930.688 185.643 909.653L114.304 838.4C93.2337 817.439 87.0037 785.782 98.5602 758.4 105.088 742.912 115.627 719.317 130.816 690.091 125.576 678.779 120.821 667.249 116.565 655.531 92.5379 648.017 68.8243 639.534 45.4829 630.102 17.9203 618.909-0.0793955 592.095 0.000212565 562.347L0.000213 461.568C-0.0619722 431.836 17.9348 405.043 45.4829 393.856 61.0562 387.499 85.1628 378.283 116.608 368.384 120.875 356.694 125.611 345.174 130.901 333.91 119.233 311.584 108.473 288.795 98.6455 265.6 87.0904 238.225 93.3019 206.577 114.347 185.6L185.6 114.262C206.567 93.2021 238.217 86.9734 265.6 98.5177 281.088 105.046 304.683 115.584 333.867 130.774 345.216 125.568 356.736 120.79 368.427 116.523 378.368 85.1204 387.541 61.0137 393.941 45.4404 405.132 17.9013 431.928-0.0805483 461.653 0.000425799L562.347 0.000427C592.098-0.0909534 618.918 17.9128 630.101 45.4831 636.459 61.0564 645.675 85.1631 655.573 116.566 667.264 120.832 678.784 125.611 690.091 130.902 712.4 119.23 735.174 108.469 758.357 98.6457 785.731 87.0784 817.386 93.2913 838.357 114.347L909.696 185.6C930.773 206.55 937.003 238.208 925.44 265.6 918.912 281.131 908.373 304.683 893.184 333.867 898.389 345.216 903.168 356.736 907.435 368.427 938.837 378.368 962.944 387.542 978.517 393.899 1006.08 405.078 1024.09 431.872 1024 461.654L1024 562.347C1024.09 592.099 1006.09 618.919 978.517 630.102 962.944 636.459 938.837 645.632 907.435 655.573 903.168 667.264 898.389 678.784 893.099 690.091 908.288 719.275 918.869 742.869 925.354 758.357 936.917 785.749 930.688 817.408 909.653 838.357L838.4 909.696C817.433 930.756 785.783 936.984 758.4 925.44 742.869 918.912 719.317 908.373 690.133 893.184 678.784 898.389 667.264 903.168 655.573 907.435 648.047 931.464 639.55 955.177 630.101 978.517 618.909 1006.08 592.095 1024.08 562.347 1024"/></svg>