<svg width="200" height="200" viewBox="0 0 1024 1024" xmlns="http://www.w3.org/2000/svg" xmlns:xlink="http://www.w3.org/1999/xlink" overflow="hidden"><defs></defs><path d="M879.117 134.592C897.8 134.592 912.682 149.473 912.682 167.65L912.682 367.664C912.682 386.368 897.799 400.722 879.117 400.722 860.737 400.844 845.714 386.042 845.55 367.664L845.55 167.65C846.099 149.434 860.879 134.835 879.117 134.592Z" fill="#040000"/><path d="M646.289 168.178C646.289 149.473 661.212 134.592 679.855 134.592L879.666 134.592C898.044 133.576 913.779 147.685 914.797 166.063 915.813 184.483 901.703 200.179 883.323 201.195 882.105 201.277 880.884 201.277 879.666 201.195L679.855 201.195C661.476 201.316 646.452 186.517 646.289 168.178Z" fill="#040000"/><path d="M525.891 521.323C513.143 508.269 513.143 487.451 525.891 474.399L855.675 144.147C868.686 131.338 889.607 131.338 902.599 144.147 915.346 157.2 915.346 178.059 902.599 191.07L573.321 521.323C560.594 534.415 539.675 534.741 526.6 521.973 526.354 521.767 526.117 521.55 525.891 521.323Z" fill="#040000"/><path d="M846.119 518.15 846.119 801.438C846.119 838.237 816.254 868.123 779.496 868.123L246.709 868.123C209.951 868.123 180.085 838.237 180.085 801.438L180.085 267.921C180.085 231.122 209.95 201.276 246.709 201.276L532.314 201.276C550.389 201.276 565.373 186.273 565.373 168.178 565.312 149.962 550.511 135.16 532.255 135.08L246.709 135.08C173.091 135.16 113.461 194.851 113.481 268.45L113.481 801.968C113.461 875.566 173.091 935.297 246.709 935.337L779.496 935.337C853.114 935.297 912.744 875.566 912.724 801.968L912.724 518.15C912.662 499.934 897.922 485.133 879.666 485.052 861.631 484.565 846.628 498.756 846.119 516.809 846.098 517.255 846.098 517.663 846.119 518.11L846.119 518.15Z" fill="#040000"/></svg>