<svg width="200" height="200" viewBox="0 0 1024 1024" xmlns="http://www.w3.org/2000/svg" xmlns:xlink="http://www.w3.org/1999/xlink" overflow="hidden"><defs></defs><path d="M533.818 315.636 533.818 515.731 673.76 655.694C691.095 672.437 691.575 700.062 674.833 717.396 658.09 734.731 630.465 735.211 613.131 718.469 612.767 718.117 612.41 717.76 612.058 717.396L459.331 564.669C451.147 556.487 446.548 545.39 446.546 533.818L446.546 315.636C446.546 291.537 466.082 272 490.182 272 514.282 272 533.818 291.537 533.818 315.636ZM512 992C437.473 992.067 363.977 974.584 297.462 940.967 275.917 930.164 267.208 903.941 278.011 882.396 288.814 860.851 315.037 852.143 336.582 862.945 390.962 890.456 451.057 904.77 512 904.727 728.897 904.727 904.727 728.897 904.727 512 904.727 295.103 728.897 119.273 512 119.273 295.103 119.273 119.273 295.103 119.273 512 119.241 572.948 133.554 633.049 161.055 687.44 172.208 708.803 163.932 735.163 142.569 746.317 121.205 757.471 94.8452 749.194 83.6915 727.831 83.4646 727.396 83.2451 726.958 83.0329 726.516 49.4247 660.006 31.9424 586.519 32.0002 512 32.0002 246.903 246.904 31.9999 512 31.9999 777.097 31.9999 992 246.903 992 512 992 777.096 777.097 992 512 992Z"/></svg>