<svg width="200" height="200" viewBox="0 0 1024 1024" xmlns="http://www.w3.org/2000/svg" xmlns:xlink="http://www.w3.org/1999/xlink" overflow="hidden"><defs></defs><path d="M853.719 540.397C832.307 534.617 810.264 547.288 804.484 568.7 804.449 568.826 804.416 568.953 804.383 569.08 765.947 715.366 668.997 784.206 512.385 784.78 355.773 785.354 258.25 713.071 219.814 569.08 214.111 547.377 191.894 534.407 170.191 540.11 148.489 545.813 135.518 568.029 141.221 589.732 175.302 745.898 312.406 858.052 472.228 860.504L472.228 982.122C472.228 1004.3 490.207 1022.28 512.385 1022.28 534.563 1022.28 552.542 1004.3 552.542 982.122L552.542 860.504C713.098 858.566 850.516 744.807 882.402 587.438 886.801 566.636 874.225 546.011 853.719 540.397Z" stroke="none" stroke-width="1" stroke-dasharray="" stroke-dashoffset="1" fill="#0D0D0D" fill-opacity="1"/><path d="M514.106 711.35C647.174 711.35 755.047 603.477 755.047 470.409L755.047 240.941C755.047 107.873 647.174 8.68164e-07 514.106 8.68164e-07 381.038 8.68164e-07 273.165 107.873 273.165 240.941L273.165 470.409C273.165 603.477 381.038 711.35 514.106 711.35ZM353.479 240.941C353.479 152.229 425.394 80.3137 514.106 80.3137 602.818 80.3137 674.734 152.229 674.734 240.941L674.734 470.409C674.734 559.121 602.818 631.036 514.106 631.036 425.394 631.036 353.479 559.121 353.479 470.409Z" stroke="none" stroke-width="1" stroke-dasharray="" stroke-dashoffset="1" fill="#0D0D0D" fill-opacity="1"/></svg>